<svg width="22" height="20" viewBox="0 0 22 20" fill="none" xmlns="http://www.w3.org/2000/svg">
<path id="Vector" d="M17.1166 6.00512L16.0364 2.49651C15.767 1.55235 14.8222 0.877563 13.81 0.877563H8.47973C7.39954 0.877563 6.45538 1.55235 6.25335 2.49651L5.10581 6.00512H0.383667L3.48687 17.6778C3.75624 18.622 4.70175 19.2968 5.71392 19.2968H16.5765C17.656 19.2968 18.6002 18.622 18.8035 17.6778L21.8394 6.00512H17.1166ZM10.6388 13.1577V18.2852H8.61509L7.53557 13.1577H10.6388ZM7.53557 12.1455L6.59141 7.01797H10.7068V12.1455H7.53557ZM11.6516 13.1577H14.6875L13.608 18.2852H11.5843V13.1577H11.6516ZM11.6516 12.1455V7.01797H15.767L14.8228 12.1455H11.6516ZM16.7792 7.08531H20.4905L19.1409 12.2129H15.7677L16.7792 7.08531ZM7.60292 2.42984C7.67093 2.09244 8.00833 1.88974 8.41306 1.88974H13.9454C14.3501 1.88974 14.6875 2.09244 14.7548 2.42984L15.767 6.00579H6.59141L7.60292 2.42984ZM5.51189 7.08531L6.5234 12.2129H3.15015L1.80058 7.08531H5.51189ZM4.76977 17.6778L3.48754 13.2244H6.45605L7.53557 18.3526H5.71392C5.30852 18.2846 4.83711 18.0152 4.76977 17.6778ZM17.4533 17.6778C17.3179 18.0145 16.9812 18.2846 16.5085 18.3526H14.7548L15.8343 13.2244H18.8035L17.4533 17.6778Z" fill="#314438"/>
</svg>
