<svg width="16" height="16" viewBox="0 0 16 16" fill="none" xmlns="http://www.w3.org/2000/svg">
<path id="Vector" d="M7.9365 0.0390625C9.99686 0.0390625 10.2539 0.0466439 11.0624 0.0845625C11.87 0.122475 12.4197 0.249119 12.9036 0.437187C13.4041 0.6298 13.8257 0.890669 14.2474 1.31154C14.633 1.69063 14.9313 2.14919 15.1217 2.65531C15.309 3.13837 15.4364 3.68892 15.4743 4.49653C15.51 5.30495 15.5198 5.56203 15.5198 7.62238C15.5198 9.68279 15.5123 9.93987 15.4743 10.7482C15.4364 11.5559 15.309 12.1057 15.1217 12.5895C14.9318 13.0959 14.6334 13.5546 14.2474 13.9332C13.8681 14.3187 13.4096 14.6171 12.9036 14.8076C12.4205 14.9949 11.87 15.1223 11.0624 15.1603C10.2539 15.1959 9.99686 15.2058 7.9365 15.2058C5.87609 15.2058 5.61902 15.1981 4.81065 15.1603C4.00301 15.1223 3.45321 14.9949 2.9694 14.8076C2.46308 14.6176 2.00444 14.3192 1.62563 13.9332C1.23994 13.5542 0.941561 13.0956 0.751274 12.5895C0.563206 12.1064 0.436562 11.5559 0.398649 10.7482C0.363006 9.93987 0.353149 9.68279 0.353149 7.62238C0.353149 5.56203 0.360731 5.30495 0.398649 4.49653C0.436562 3.68816 0.563206 3.13913 0.751274 2.65531C0.941032 2.14888 1.23949 1.69019 1.62563 1.31154C2.00455 0.925727 2.46316 0.627321 2.9694 0.437187C3.45321 0.249119 4.00225 0.122475 4.81065 0.0845625C5.61902 0.0489189 5.87609 0.0390625 7.9365 0.0390625ZM7.9365 3.83073C6.93084 3.83073 5.96647 4.23019 5.25536 4.9413C4.54431 5.65235 4.14481 6.61678 4.14481 7.62238C4.14481 8.62799 4.54431 9.59242 5.25536 10.3035C5.96647 11.0146 6.93084 11.4141 7.9365 11.4141C8.94211 11.4141 9.90654 11.0146 10.6176 10.3035C11.3286 9.59242 11.7281 8.62799 11.7281 7.62238C11.7281 6.61678 11.3286 5.65235 10.6176 4.9413C9.90654 4.23019 8.94211 3.83073 7.9365 3.83073ZM12.8656 3.64114C12.8656 3.38974 12.7658 3.14863 12.588 2.97087C12.4102 2.7931 12.1691 2.69323 11.9178 2.69323C11.6663 2.69323 11.4252 2.7931 11.2474 2.97087C11.0697 3.14863 10.9698 3.38974 10.9698 3.64114C10.9698 3.89255 11.0697 4.13365 11.2474 4.3114C11.4252 4.4892 11.6663 4.58907 11.9178 4.58907C12.1691 4.58907 12.4102 4.4892 12.588 4.3114C12.7658 4.13365 12.8656 3.89255 12.8656 3.64114ZM7.9365 5.34738C8.53983 5.34738 9.11848 5.58705 9.54516 6.01373C9.97178 6.44035 10.2115 7.01905 10.2115 7.62238C10.2115 8.22577 9.97178 8.80442 9.54516 9.23104C9.11848 9.65771 8.53983 9.89738 7.9365 9.89738C7.33312 9.89738 6.75447 9.65771 6.32779 9.23104C5.90118 8.80442 5.6615 8.22577 5.6615 7.62238C5.6615 7.01905 5.90118 6.44035 6.32779 6.01373C6.75447 5.58705 7.33312 5.34738 7.9365 5.34738Z" fill="#314438"/>
</svg>
