<svg width="13" height="13" viewBox="0 0 13 13" fill="none" xmlns="http://www.w3.org/2000/svg">
<path id="Vector" d="M2.79905 12.6637H0.293137V4.59651H2.79905V12.6637ZM1.54439 3.49598C0.743587 3.49598 0.0935059 2.83282 0.0935059 2.03202C0.0935059 1.23008 0.743587 0.580566 1.54439 0.580566C2.34576 0.580566 2.99527 1.23008 2.99527 2.03202C2.99584 2.83282 2.34576 3.49598 1.54439 3.49598ZM12.176 12.6637H9.67581V8.73758C9.67581 7.80085 9.65647 6.60135 8.37394 6.60135C7.07093 6.60135 6.87073 7.61828 6.87073 8.6699V12.6637H4.36823V4.59651H6.7712V5.69704H6.80589C7.14032 5.06345 7.95704 4.39404 9.17701 4.39404C11.7125 4.39404 12.1789 6.06332 12.1789 8.23196V12.6631L12.176 12.6637Z" fill="#314438"/>
</svg>
