<svg width="28" height="21" viewBox="0 0 28 21" fill="none" xmlns="http://www.w3.org/2000/svg">
<path id="Vector" d="M2.81096 18.954C1.26596 17.313 0.436462 15.4725 0.436462 12.489C0.436462 7.23903 4.12196 2.53353 9.48146 0.207031L10.821 2.27403C5.81846 4.98003 4.84046 8.49153 4.45046 10.7055C5.25596 10.2885 6.31046 10.143 7.34396 10.239C10.05 10.4895 12.183 12.711 12.183 15.4725C12.183 16.8649 11.6299 18.2002 10.6453 19.1848C9.66071 20.1694 8.32535 20.7225 6.93296 20.7225C5.32346 20.7225 3.78446 19.9875 2.81096 18.954ZM17.811 18.954C16.266 17.313 15.4365 15.4725 15.4365 12.489C15.4365 7.23903 19.122 2.53353 24.4815 0.207031L25.821 2.27403C20.8185 4.98003 19.8405 8.49153 19.4505 10.7055C20.256 10.2885 21.3105 10.143 22.344 10.239C25.05 10.4895 27.183 12.711 27.183 15.4725C27.183 16.8649 26.6299 18.2002 25.6453 19.1848C24.6607 20.1694 23.3254 20.7225 21.933 20.7225C20.3235 20.7225 18.7845 19.9875 17.811 18.954Z" fill="#314438"/>
</svg>
