<svg width="43" height="43" viewBox="0 0 43 43" fill="none" xmlns="http://www.w3.org/2000/svg">
<g id="SVG" clip-path="url(#clip0_1_1199)">
<path id="Vector" opacity="0.6" d="M21.8265 41.8726C33.1483 41.8726 42.3265 32.6944 42.3265 21.3726C42.3265 10.0507 33.1483 0.872559 21.8265 0.872559C10.5046 0.872559 1.32648 10.0507 1.32648 21.3726C1.32648 32.6944 10.5046 41.8726 21.8265 41.8726Z" stroke="#314438"/>
<path id="Vector_2" d="M20.7962 25.8424L20.2658 26.3727L21.3265 27.4334L21.8568 26.903L20.7962 25.8424ZM26.3265 21.3727L26.8568 21.903C27.1497 21.6101 27.1497 21.1353 26.8568 20.8424L26.3265 21.3727ZM21.8568 15.8424L21.3265 15.312L20.2658 16.3727L20.7962 16.903L21.8568 15.8424ZM21.8568 26.903L26.8568 21.903L25.7962 20.8424L20.7962 25.8424L21.8568 26.903ZM26.8568 20.8424L21.8568 15.8424L20.7962 16.903L25.7962 21.903L26.8568 20.8424Z" fill="#314438"/>
</g>
<defs>
<clipPath id="clip0_1_1199">
<rect width="42" height="42" fill="white" transform="translate(0.826477 0.372559)"/>
</clipPath>
</defs>
</svg>
