<svg width="16" height="14" viewBox="0 0 16 14" fill="none" xmlns="http://www.w3.org/2000/svg">
<path id="Vector" d="M15.904 1.7391C15.3239 1.99561 14.7039 2.16851 14.0504 2.24871C14.725 1.84546 15.2294 1.21017 15.4706 0.462261C14.837 0.839342 14.1437 1.10381 13.4203 1.24543C12.8111 0.592505 11.9569 0.22168 11.0634 0.22168C9.06704 0.22168 7.50298 1.96547 7.9193 4.18871C5.32239 4.06017 2.90236 2.83224 1.2655 0.811474C0.409529 2.28909 0.848604 4.17734 2.26877 5.12544C1.73529 5.11236 1.23535 4.96562 0.801967 4.72277V4.76258C0.801967 6.29991 1.88544 7.62453 3.39205 7.92938C3.11507 8.00389 2.82899 8.04199 2.54177 8.04199C2.33475 8.04199 2.1317 8.02209 1.93492 7.98228C2.3575 9.29779 3.57007 10.1998 4.95157 10.2254C3.59965 11.289 1.87861 11.7702 0.170654 11.5626C1.6403 12.5198 3.35736 13.0271 5.11139 13.0231C11.0554 13.0231 14.4349 8.11536 14.2921 3.4118C14.9235 2.95395 15.4695 2.38748 15.9023 1.73854L15.904 1.7391Z" fill="#314438"/>
</svg>
