<svg width="43" height="43" viewBox="0 0 43 43" fill="none" xmlns="http://www.w3.org/2000/svg">
<g opacity="0.3" clip-path="url(#clip0_1_1196)">
<path opacity="0.6" d="M21.4565 0.872559C10.1346 0.872559 0.956482 10.0507 0.956482 21.3726C0.956482 32.6944 10.1346 41.8726 21.4565 41.8726C32.7783 41.8726 41.9565 32.6944 41.9565 21.3726C41.9565 10.0507 32.7783 0.872559 21.4565 0.872559Z" stroke="#314438"/>
<path d="M22.4868 16.9027L23.0172 16.3724L21.9565 15.3117L21.4262 15.8421L22.4868 16.9027ZM16.9565 21.3724L16.4262 20.8421C16.1333 21.135 16.1333 21.6098 16.4262 21.9027L16.9565 21.3724ZM21.4262 26.9027L21.9565 27.4331L23.0172 26.3724L22.4868 25.8421L21.4262 26.9027ZM21.4262 15.8421L16.4262 20.8421L17.4868 21.9027L22.4868 16.9027L21.4262 15.8421ZM16.4262 21.9027L21.4262 26.9027L22.4868 25.8421L17.4868 20.8421L16.4262 21.9027Z" fill="#314438"/>
</g>
<defs>
<clipPath id="clip0_1_1196">
<rect width="42" height="42" fill="white" transform="matrix(-1 0 0 -1 42.4565 42.3726)"/>
</clipPath>
</defs>
</svg>
